<svg width="40" height="40" viewBox="0 0 40 40" fill="none" xmlns="http://www.w3.org/2000/svg">
<rect width="40" height="40" rx="8" fill="#CCFFFF"/>
<path fill-rule="evenodd" clip-rule="evenodd" d="M24 25H12C11.448 25 11 24.552 11 24V16C11 15.448 11.448 15 12 15H24C24.552 15 25 15.448 25 16V24C25 24.552 24.552 25 24 25Z" stroke="#008A99" stroke-width="1.5" stroke-linecap="round" stroke-linejoin="round"/>
<path d="M14.5 28H21.5" stroke="#008A99" stroke-width="1.5" stroke-linecap="round" stroke-linejoin="round"/>
<path d="M24.75 28H28C28.552 28 29 27.552 29 27V12C29 11.448 28.552 11 28 11H21.5C20.948 11 20.5 11.448 20.5 12V14.187" stroke="#008A99" stroke-width="1.5" stroke-linecap="round" stroke-linejoin="round"/>
<path d="M18 25V28" stroke="#008A99" stroke-width="1.5" stroke-linecap="round" stroke-linejoin="round"/>
</svg>
