<svg width="40" height="40" viewBox="0 0 40 40" fill="none" xmlns="http://www.w3.org/2000/svg">
<rect width="40" height="40" rx="8" fill="#CCFFFF"/>
<path d="M28.7933 17.5232C29.5833 18.3132 29.5833 19.5941 28.7933 20.3841C28.0033 21.1742 26.7224 21.1742 25.9324 20.3841C25.1423 19.5941 25.1423 18.3132 25.9324 17.5232C26.7224 16.7332 28.0033 16.7332 28.7933 17.5232" stroke="#008A99" stroke-width="1.5" stroke-linecap="round" stroke-linejoin="round"/>
<path d="M22.2024 13.9124C23.4189 15.1288 23.4189 17.1011 22.2024 18.3176C20.9859 19.5341 19.0136 19.5341 17.7971 18.3176C16.5806 17.1012 16.5806 15.1289 17.7971 13.9124C19.0136 12.6959 20.9859 12.6959 22.2024 13.9124" stroke="#008A99" stroke-width="1.5" stroke-linecap="round" stroke-linejoin="round"/>
<path d="M14.0687 17.5232C14.8587 18.3132 14.8587 19.5941 14.0687 20.3841C13.2787 21.1742 11.9978 21.1742 11.2078 20.3841C10.4177 19.5941 10.4177 18.3132 11.2078 17.5232C11.9978 16.7332 13.2787 16.7332 14.0687 17.5232" stroke="#008A99" stroke-width="1.5" stroke-linecap="round" stroke-linejoin="round"/>
<path d="M31.0002 27.0003V25.9043C31.0002 24.5233 29.8812 23.4043 28.5002 23.4043H27.6992" stroke="#008A99" stroke-width="1.5" stroke-linecap="round" stroke-linejoin="round"/>
<path d="M9 27.0003V25.9043C9 24.5233 10.119 23.4043 11.5 23.4043H12.301" stroke="#008A99" stroke-width="1.5" stroke-linecap="round" stroke-linejoin="round"/>
<path d="M25.3392 27.0004V25.3994C25.3392 23.4664 23.7722 21.8994 21.8392 21.8994H18.1602C16.2272 21.8994 14.6602 23.4664 14.6602 25.3994V27.0004" stroke="#008A99" stroke-width="1.5" stroke-linecap="round" stroke-linejoin="round"/>
</svg>
