<svg width="24" height="24" viewBox="0 0 24 24" fill="none" xmlns="http://www.w3.org/2000/svg">
<path fill-rule="evenodd" clip-rule="evenodd" d="M18.2041 5.76205C16.5581 4.11505 14.3691 3.20705 12.0371 3.20605C7.23014 3.20605 3.31914 7.11505 3.31814 11.9201C3.31614 13.4491 3.71714 14.9521 4.48114 16.2771L3.24414 20.7931L7.86614 19.5811C9.14514 20.2771 10.5771 20.6421 12.0331 20.6421H12.0371C16.8421 20.6421 20.7531 16.7321 20.7551 11.9271C20.7561 9.59905 19.8501 7.41005 18.2041 5.76205Z" stroke="#3E4095" stroke-width="1.5" stroke-linecap="round" stroke-linejoin="round"/>
<path d="M13.0957 13.5599L13.5017 13.1569C13.8747 12.7869 14.4647 12.7399 14.8947 13.0419C15.3107 13.3339 15.6867 13.5959 16.0367 13.8399C16.5927 14.2259 16.6597 15.0179 16.1807 15.4959L15.8217 15.8549" stroke="#3E4095" stroke-width="1.5" stroke-linecap="round" stroke-linejoin="round"/>
<path d="M8.14453 8.17938L8.50353 7.82038C8.98153 7.34238 9.77353 7.40938 10.1595 7.96438C10.4025 8.31438 10.6645 8.69038 10.9575 9.10638C11.2595 9.53638 11.2135 10.1264 10.8425 10.4994L10.4395 10.9054" stroke="#3E4095" stroke-width="1.5" stroke-linecap="round" stroke-linejoin="round"/>
<path d="M15.8217 15.8553C14.3407 17.3293 11.8517 16.0773 9.88672 14.1113" stroke="#3E4095" stroke-width="1.5" stroke-linecap="round" stroke-linejoin="round"/>
<path d="M9.88807 14.1147C7.92307 12.1487 6.67107 9.66069 8.14507 8.17969" stroke="#3E4095" stroke-width="1.5" stroke-linecap="round" stroke-linejoin="round"/>
<path d="M10.4395 10.9053C10.7585 11.4083 11.1675 11.9063 11.6295 12.3683L11.6315 12.3703C12.0935 12.8323 12.5915 13.2413 13.0945 13.5603" stroke="#3E4095" stroke-width="1.5" stroke-linecap="round" stroke-linejoin="round"/>
</svg>
